<?xml version="1.0" encoding="utf-8"?>
<svg viewBox="65.852 50.095 155.559 129.683" width="155.559" height="129.683" xmlns="http://www.w3.org/2000/svg">
  <path style="" d="M 70.138 94.976 C 74.493 91.105 78.728 84.572 82.841 75.377 C 87.44 65.098 100.566 57.658 122.22 53.057 C 139.253 49.438 151.654 49.136 159.421 52.149 C 159.421 52.149 163.897 53.056 172.849 54.871 C 185.794 57.495 194.203 60.883 198.074 65.034 C 199.891 66.982 201.826 68.797 203.881 70.478 C 207.291 73.269 210.013 76.414 212.047 79.914 C 213.839 82.997 215.714 86.627 217.672 90.802 C 219.118 93.885 219.844 97.212 219.85 100.783 C 219.854 103.002 220.277 105.179 221.12 107.316 C 221.604 108.543 221.483 110.237 220.757 112.397 C 220.714 112.526 220.835 113.917 221.12 116.571 C 221.361 118.814 221.059 120.266 220.213 120.926 C 220.213 120.926 220.515 122.438 221.12 125.463 C 221.495 127.338 220.89 129.153 219.306 130.907 C 219.306 130.907 219.427 131.754 219.669 133.447 C 220.009 135.825 218.497 139.092 215.132 143.247 C 213.182 145.655 211.791 147.409 210.958 148.509 C 209.367 150.61 207.129 152.002 204.244 152.683 C 204.244 152.683 203.155 153.772 200.977 155.95 C 199.797 157.13 198.587 158.279 197.348 159.398 C 195.482 161.083 193.183 162.111 190.452 162.483 C 190.452 162.483 189.242 163.451 186.823 165.386 C 184.962 166.875 183.026 168.267 181.016 169.56 C 181.016 169.56 179.322 171.133 175.934 174.278 C 174.643 175.477 172.95 175.961 170.853 175.73 C 170.853 175.73 170.188 176.153 168.857 177 C 167.355 177.955 165.601 178.258 163.595 177.907 C 162.482 177.712 161.393 178.015 160.328 178.815 C 158.283 180.352 155.742 180.049 152.706 177.907 C 152.706 177.907 150.71 177.847 146.718 177.726 C 144.56 177.661 142.443 177.237 140.366 176.456 C 139.059 175.964 137.729 175.54 136.374 175.185 C 135.634 174.991 134.001 175.112 132.2 175.367 C 132.2 175.367 132.624 175.609 128.389 174.641 C 126.478 174.204 124.421 173.902 122.22 173.734 C 121.167 173.653 120.576 175.228 119.316 175.004 C 117.631 174.705 116.542 174.765 111.694 173.552 C 110.84 173.339 109.933 173.278 108.972 173.371 C 107.463 173.516 107.04 174.06 105.887 172.463 C 105.887 172.463 104.829 172.218 103.891 172.1 C 102.535 171.93 98.784 169.329 89.918 162.664 C 88.093 161.293 86.884 159.357 86.289 156.857 C 86.289 156.857 84.777 156.373 81.752 155.405 C 80.383 154.967 79.838 153.636 80.119 151.413 C 80.119 151.413 79.272 150.99 77.578 150.143 C 75.907 149.308 74.999 147.674 74.856 145.243 C 74.815 144.549 73.545 142.674 71.045 139.617 C 69.648 137.908 69.285 135.731 69.956 133.085 C 69.956 133.085 69.23 132.057 67.779 130 C 66.591 128.317 66.47 126.26 67.416 123.83 C 67.416 123.83 66.992 121.773 66.145 117.66 C 65.754 115.764 65.754 113.828 66.145 111.853 C 66.643 109.334 67.309 106.853 68.142 104.412 C 68.692 102.8 68.873 101.106 68.686 99.331 C 68.542 97.965 69.026 96.513 70.138 94.976 Z"/>
</svg>